<svg xmlns:xlink="http://www.w3.org/1999/xlink" xmlns="http://www.w3.org/2000/svg" width="24" height="24" viewBox="0 0 24 24" fill="none">
<g clip-path="url(#clip0_11180_69614)">
<path d="M11.9709 0.226318C5.65043 0.226318 0.328796 5.39538 0.328796 11.7735V23.7305L11.9686 23.7191C18.289 23.7191 23.4154 18.3508 23.4154 11.975C23.4154 5.59915 18.2845 0.226318 11.9709 0.226318Z" fill="#231F20"/>
<path d="M12.0831 4.6958C10.8542 4.69653 9.64662 5.01913 8.57845 5.63203C7.51029 6.24492 6.61819 7.1271 5.98947 8.19221C5.36075 9.25732 5.01697 10.4689 4.99177 11.7082C4.96658 12.9476 5.26083 14.1724 5.84573 15.2626L4.56189 19.4286L9.17203 18.3781C10.1367 18.8165 11.1864 19.0317 12.2442 19.008C13.302 18.9842 14.3412 18.7221 15.2856 18.2408C16.23 17.7595 17.0557 17.0713 17.7023 16.2264C18.3489 15.3815 18.7999 14.4015 19.0225 13.358C19.245 12.3145 19.2333 11.234 18.9884 10.1957C18.7434 9.15734 18.2713 8.18741 17.6066 7.35694C16.942 6.52646 16.1016 5.85647 15.147 5.39602C14.1925 4.93557 13.1479 4.69632 12.0898 4.6958H12.0831Z" fill="#FFF9AE"/>
<path d="M17.7122 7.49878C18.6686 8.76363 19.1798 10.3139 19.165 11.9046C19.1503 13.4953 18.6104 15.0357 17.6308 16.2823C16.6512 17.5289 15.2877 18.4106 13.7559 18.7881C12.224 19.1656 10.611 19.0173 9.17203 18.3667L4.56189 19.4309L9.25507 18.8716C10.7579 19.7597 12.5322 20.0589 14.2397 19.7122C15.9471 19.3654 17.4684 18.397 18.5136 16.9915C19.5588 15.586 20.0547 13.8417 19.9069 12.091C19.7592 10.3404 18.9779 8.70576 17.7122 7.49878Z" fill="#00AEEF"/>
<path d="M16.4059 6.17896C17.4879 7.33618 18.1567 8.82412 18.3066 10.4076C18.4566 11.9911 18.0792 13.5799 17.234 14.9228C16.3888 16.2658 15.124 17.2863 13.6396 17.8231C12.1552 18.3598 10.5358 18.3823 9.03736 17.8869L4.56189 19.431L9.17203 18.3782C10.7581 19.1009 12.5522 19.2102 14.2129 18.6851C15.8736 18.16 17.285 17.0374 18.1784 15.5307C19.0718 14.0241 19.3849 12.2386 19.0581 10.5142C18.7313 8.78984 17.7873 7.24686 16.4059 6.17896Z" fill="#00A94F"/>
<path d="M6.26993 15.4212C5.64649 13.9053 5.55849 12.2192 6.02068 10.6456C6.48287 9.07194 7.46716 7.70637 8.80862 6.77769C10.1501 5.84901 11.7672 5.41364 13.389 5.54453C15.0108 5.67543 16.5387 6.36465 17.7167 7.49669C16.6326 6.06155 15.0512 5.09242 13.289 4.78332C11.5268 4.47421 9.71393 4.84795 8.21324 5.8297C6.71256 6.81145 5.63484 8.32877 5.19585 10.0779C4.75685 11.827 4.98896 13.6789 5.84573 15.2627L4.56189 19.4288L6.26993 15.4212Z" fill="#F15D22"/>
<path d="M5.84571 15.2626C5.07208 13.8211 4.81242 12.1554 5.11015 10.5439C5.40788 8.93248 6.24494 7.47295 7.48141 6.40936C8.71788 5.34577 10.2788 4.74257 11.9032 4.70062C13.5277 4.65867 15.1171 5.1805 16.4059 6.17887C15.1774 4.87389 13.5065 4.08373 11.7263 3.96583C9.94604 3.84792 8.18712 4.41093 6.79995 5.54267C5.41279 6.67441 4.49922 8.29181 4.24126 10.0726C3.98331 11.8534 4.3999 13.6669 5.40804 15.1517L4.56412 19.4309L5.84571 15.2626Z" fill="#E31B23"/>
</g>
<defs>
<clipPath id="clip0_11180_69614">
<rect width="23.3425" height="24" fill="white" transform="translate(0.328796)"/>
</clipPath>
</defs>
</svg>