<svg xmlns:xlink="http://www.w3.org/1999/xlink" xmlns="http://www.w3.org/2000/svg" width="32" height="24" viewBox="0 0 32 24" fill="none">
<path d="M26.3004 2.00999C24.2906 1.071 22.1417 0.388577 19.895 0C19.6191 0.498142 19.2968 1.16815 19.0745 1.70115C16.6862 1.34249 14.3199 1.34249 11.9756 1.70115C11.7534 1.16815 11.4237 0.498142 11.1453 0C8.89623 0.388577 6.74482 1.07351 4.73504 2.01497C0.681295 8.13203 -0.417607 14.0972 0.131845 19.9776C2.8205 21.9826 5.42613 23.2005 7.98779 23.9975C8.62027 23.1283 9.18437 22.2042 9.67032 21.2304C8.74481 20.8792 7.85836 20.4459 7.02078 19.9427C7.24298 19.7784 7.46034 19.6065 7.67033 19.4296C12.779 21.8157 18.3297 21.8157 23.3773 19.4296C23.5898 19.6065 23.8071 19.7784 24.0269 19.9427C23.1868 20.4483 22.298 20.8817 21.3725 21.2329C21.8584 22.2042 22.4201 23.1308 23.055 24C25.6191 23.203 28.2272 21.9851 30.9158 19.9776C31.5605 13.1607 29.8145 7.25033 26.3004 2.00999ZM10.3663 16.3612C8.83273 16.3612 7.57508 14.9315 7.57508 13.1906C7.57508 11.4496 8.80588 10.0175 10.3663 10.0175C11.9268 10.0175 13.1844 11.4471 13.1575 13.1906C13.16 14.9315 11.9268 16.3612 10.3663 16.3612ZM20.6814 16.3612C19.1478 16.3612 17.8901 14.9315 17.8901 13.1906C17.8901 11.4496 19.1209 10.0175 20.6814 10.0175C22.2418 10.0175 23.4995 11.4471 23.4726 13.1906C23.4726 14.9315 22.2418 16.3612 20.6814 16.3612Z" fill="#5865F2"/>
</svg>