<svg width="863" height="863" viewBox="0 0 863 863" fill="none" xmlns="http://www.w3.org/2000/svg">
<rect width="863" height="863" rx="70" fill="#1E1F20"/>
<path d="M186.628 323.827C172.114 357.453 164.857 395.465 164.857 437.863C164.857 480.261 172.114 518.029 186.628 551.168C201.626 584.794 221.461 613.303 246.134 636.695C270.808 660.087 299.109 677.875 331.04 690.058C337.17 692.362 343.343 694.448 349.56 696.317L431.771 587.718C411.018 587.703 390.987 584.291 371.678 577.484C352.326 570.661 335.152 560.671 320.154 547.513C305.157 534.842 293.062 519.248 283.87 500.729C275.162 482.21 270.808 461.255 270.808 437.863C270.808 414.471 275.162 393.516 283.87 374.997C293.062 356.478 305.157 340.64 320.154 327.482C335.152 314.811 352.326 305.065 371.678 298.242C391.03 291.419 411.107 288.008 431.91 288.008C452.713 288.008 472.79 291.419 492.142 298.242C511.494 305.065 528.668 314.811 543.666 327.482C558.663 340.64 570.516 356.478 579.225 374.997C588.417 393.516 593.013 414.471 593.013 437.863C593.013 461.255 588.417 482.21 579.225 500.729C570.516 519.248 558.663 534.842 543.666 547.513C528.668 560.671 511.494 570.661 492.142 577.484C472.834 584.291 452.804 587.703 432.051 587.718L514.172 696.198C520.183 694.36 526.144 692.313 532.055 690.058C564.469 677.875 593.013 660.087 617.686 636.695C642.359 613.303 661.953 584.794 676.467 551.168C691.464 518.029 698.963 480.261 698.963 437.863C698.963 395.465 691.464 357.453 676.467 323.827C661.953 290.201 642.359 261.692 617.686 238.3C593.013 214.908 564.469 197.12 532.055 184.937C500.125 172.754 466.743 166.662 431.91 166.662C397.077 166.662 363.454 172.754 331.04 184.937C299.109 197.12 270.808 214.908 246.134 238.3C221.461 261.692 201.626 290.201 186.628 323.827Z" fill="#F9F9F9"/>
</svg>
