<svg width="612" height="123" viewBox="0 0 612 123" fill="none" xmlns="http://www.w3.org/2000/svg">
<path d="M5.05572 36.4979C1.68524 44.3068 4.27252e-07 53.1342 0 62.9801C-4.27252e-07 72.8261 1.68523 81.5969 5.05571 89.2926C8.53854 97.1014 13.1449 103.722 18.8747 109.154C24.6045 114.586 31.1769 118.717 38.592 121.547C40.0156 122.082 41.4492 122.566 42.8929 123L61.9845 97.7804C57.165 97.7769 52.5133 96.9847 48.0293 95.4038C43.5353 93.8194 39.5469 91.4994 36.0641 88.4438C32.5813 85.5013 29.7726 81.8798 27.6379 77.5793C25.6156 73.2788 24.6045 68.4124 24.6045 62.9801C24.6045 57.5479 25.6156 52.6815 27.6379 48.381C29.7726 44.0804 32.5813 40.4023 36.0641 37.3467C39.5469 34.4042 43.5353 32.1408 48.0293 30.5564C52.5233 28.972 57.1858 28.1798 62.0168 28.1798C66.8478 28.1798 71.5103 28.972 76.0043 30.5564C80.4983 32.1408 84.4867 34.4042 87.9695 37.3467C91.4523 40.4023 94.2049 44.0804 96.2272 48.381C98.3618 52.6815 99.4291 57.5479 99.4291 62.9801C99.4291 68.4124 98.3618 73.2788 96.2272 77.5793C94.2049 81.8798 91.4523 85.5013 87.9695 88.4438C84.4867 91.4994 80.4983 93.8194 76.0043 95.4038C71.5204 96.9847 66.8688 97.7769 62.0495 97.7804L81.1202 122.972C82.516 122.546 83.9003 122.07 85.2731 121.547C92.8005 118.717 99.4291 114.586 105.159 109.154C110.889 103.722 115.439 97.1014 118.809 89.2926C122.292 81.5969 124.034 72.8261 124.034 62.9801C124.034 53.1342 122.292 44.3068 118.809 36.4979C115.439 28.6891 110.889 22.0685 105.159 16.6363C99.4291 11.204 92.8005 7.07324 85.2731 4.24394C77.858 1.41465 70.106 3.56177e-07 62.0168 0C53.9277 -3.56176e-07 46.1194 1.41465 38.592 4.24394C31.1769 7.07324 24.6045 11.204 18.8747 16.6363C13.1449 22.0685 8.53854 28.6891 5.05572 36.4979Z" fill="#1E1F20"/>
<path d="M218.439 70.3439C217.855 73.6116 216.718 76.675 215.025 79.5342C213.392 82.3934 211.262 84.9025 208.636 87.0615C206.01 89.1622 202.947 90.8252 199.446 92.0506C195.944 93.2759 192.093 93.8886 187.892 93.8886C182.699 93.8886 178.06 93.0134 173.975 91.2628C169.949 89.5123 166.506 87.1782 163.647 84.2607C160.846 81.2848 158.687 77.842 157.17 73.9325C155.711 70.023 154.982 65.9092 154.982 61.5912C154.982 57.3899 155.711 53.3637 157.17 49.5125C158.629 45.6613 160.73 42.2478 163.472 39.2719C166.273 36.296 169.657 33.9327 173.625 32.1822C177.593 30.3733 182.086 29.4689 187.104 29.4689C191.831 29.4689 196.032 30.1399 199.708 31.482C203.443 32.8241 206.594 34.633 209.161 36.9087C211.787 39.1844 213.858 41.8685 215.375 44.9611C216.893 48.0537 217.885 51.3506 218.351 54.8517H203.559C203.209 53.0428 202.597 51.3798 201.721 49.8626C200.904 48.3455 199.825 47.0326 198.483 45.9239C197.199 44.7569 195.653 43.8525 193.844 43.2106C192.093 42.5687 190.139 42.2478 187.98 42.2478C185.004 42.2478 182.349 42.8021 180.015 43.9108C177.739 44.9611 175.813 46.3907 174.238 48.1996C172.662 49.9502 171.466 51.9924 170.649 54.3265C169.832 56.6605 169.424 59.0821 169.424 61.5912C169.424 64.2754 169.832 66.8137 170.649 69.2061C171.524 71.5401 172.779 73.6116 174.413 75.4205C176.105 77.171 178.118 78.5714 180.452 79.6217C182.845 80.6137 185.587 81.1097 188.68 81.1097C190.43 81.1097 192.093 80.8471 193.669 80.322C195.244 79.7385 196.674 78.9799 197.958 78.0463C199.3 77.0543 200.438 75.9164 201.371 74.6327C202.305 73.2906 202.976 71.861 203.384 70.3439H218.439Z" fill="#1E1F20"/>
<path d="M254.683 93.8886C249.606 93.8886 245.055 93.0134 241.028 91.2628C237.002 89.4539 233.589 87.0615 230.788 84.0856C227.987 81.1097 225.857 77.6962 224.398 73.845C222.939 69.9354 222.21 65.88 222.21 61.6787C222.21 57.4775 222.939 53.4512 224.398 49.6C225.857 45.6905 227.987 42.2478 230.788 39.2719C233.589 36.296 237.002 33.9327 241.028 32.1822C245.055 30.3733 249.606 29.4689 254.683 29.4689C259.759 29.4689 264.281 30.3733 268.249 32.1822C272.275 33.9327 275.689 36.296 278.49 39.2719C281.291 42.2478 283.42 45.6905 284.879 49.6C286.338 53.4512 287.067 57.4775 287.067 61.6787C287.067 65.88 286.338 69.9354 284.879 73.845C283.42 77.6962 281.291 81.1097 278.49 84.0856C275.689 87.0615 272.275 89.4539 268.249 91.2628C264.281 93.0134 259.759 93.8886 254.683 93.8886ZM254.683 81.1097C257.483 81.1097 259.992 80.5845 262.21 79.5342C264.427 78.4256 266.294 76.9668 267.812 75.1579C269.387 73.349 270.583 71.2775 271.4 68.9435C272.217 66.6094 272.626 64.1879 272.626 61.6787C272.626 59.1696 272.217 56.7481 271.4 54.414C270.583 52.08 269.387 50.0085 267.812 48.1996C266.294 46.3907 264.427 44.9611 262.21 43.9108C259.992 42.8021 257.483 42.2478 254.683 42.2478C251.882 42.2478 249.373 42.8021 247.155 43.9108C244.938 44.9611 243.041 46.3907 241.466 48.1996C239.949 50.0085 238.782 52.08 237.965 54.414C237.148 56.7481 236.74 59.1696 236.74 61.6787C236.74 64.1879 237.148 66.6094 237.965 68.9435C238.782 71.2775 239.949 73.349 241.466 75.1579C243.041 76.9668 244.938 78.4256 247.155 79.5342C249.373 80.5845 251.882 81.1097 254.683 81.1097Z" fill="#1E1F20"/>
<path d="M330.891 70.9566V31.0444H344.983V92.3131H330.191L308.134 52.9261V92.3131H293.955V31.0444H308.747L330.891 70.9566Z" fill="#1E1F20"/>
<path d="M416.737 61.6787C416.737 64.7714 416.329 67.7764 415.512 70.694C414.695 73.5532 413.528 76.2666 412.011 78.834C410.493 81.3431 408.626 83.6188 406.409 85.6611C404.192 87.645 401.653 89.2497 398.794 90.4751L404.046 97.5648L391.617 103.867L384.265 93.8886C379.188 93.8886 374.637 93.0134 370.61 91.2628C366.584 89.4539 363.171 87.0615 360.37 84.0856C357.627 81.1097 355.527 77.6962 354.068 73.845C352.609 69.9354 351.88 65.88 351.88 61.6787C351.88 57.4775 352.609 53.4512 354.068 49.6C355.527 45.6905 357.656 42.2478 360.457 39.2719C363.258 36.296 366.672 33.9327 370.698 32.1822C374.724 30.3733 379.276 29.4689 384.352 29.4689C389.429 29.4689 393.951 30.3733 397.919 32.1822C401.945 33.9327 405.359 36.296 408.159 39.2719C410.96 42.2478 413.09 45.6905 414.549 49.6C416.008 53.4512 416.737 57.4775 416.737 61.6787ZM384.352 81.1097C387.153 81.1097 389.662 80.5845 391.879 79.5342C394.097 78.4256 395.964 76.9668 397.481 75.1579C399.057 73.349 400.253 71.2775 401.07 68.9435C401.887 66.6094 402.295 64.1879 402.295 61.6787C402.295 59.1696 401.887 56.7481 401.07 54.414C400.253 52.08 399.057 50.0085 397.481 48.1996C395.964 46.3907 394.097 44.9611 391.879 43.9108C389.662 42.8021 387.153 42.2478 384.352 42.2478C381.551 42.2478 379.042 42.8021 376.825 43.9108C374.607 44.9611 372.711 46.3907 371.136 48.1996C369.618 50.0085 368.451 52.08 367.635 54.414C366.818 56.7481 366.409 59.1696 366.409 61.6787C366.409 64.1879 366.818 66.6094 367.635 68.9435C368.451 71.2775 369.618 73.349 371.136 75.1579C372.711 76.9668 374.607 78.4256 376.825 79.5342C379.042 80.5845 381.551 81.1097 384.352 81.1097Z" fill="#1E1F20"/>
<path d="M422.662 31.0444H436.841V71.3067C436.841 72.7071 437.074 74.0492 437.541 75.3329C438.008 76.5583 438.65 77.6378 439.467 78.5714C440.342 79.505 441.363 80.2636 442.53 80.8471C443.697 81.3723 445.01 81.6349 446.469 81.6349C447.928 81.6349 449.241 81.3723 450.408 80.8471C451.633 80.2636 452.654 79.505 453.471 78.5714C454.346 77.6378 455.017 76.5583 455.484 75.3329C455.951 74.0492 456.184 72.7071 456.184 71.3067V31.0444H470.364V71.3942C470.364 74.5452 469.809 77.4919 468.701 80.2344C467.592 82.9769 465.987 85.3693 463.887 87.4116C461.844 89.3956 459.335 90.9711 456.359 92.1381C453.442 93.3051 450.145 93.8886 446.469 93.8886C442.793 93.8886 439.496 93.3051 436.578 92.1381C433.661 90.9711 431.152 89.3956 429.051 87.4116C427.009 85.3693 425.433 82.9769 424.325 80.2344C423.216 77.4919 422.662 74.5452 422.662 71.3942V31.0444Z" fill="#1E1F20"/>
<path d="M493.578 42.4228V56.3396H516.773V67.4555H493.578V80.9347H516.773V92.3131H479.399V31.0444H516.773V42.4228H493.578Z" fill="#1E1F20"/>
<path d="M537.839 72.0069C537.839 75.3329 538.744 77.9296 540.553 79.7968C542.362 81.664 544.725 82.5977 547.642 82.5977C549.918 82.5977 551.814 81.9558 553.332 80.6721C554.907 79.33 555.695 77.5795 555.695 75.4205C555.695 74.1951 555.432 73.1739 554.907 72.357C554.44 71.4818 553.769 70.7232 552.894 70.0813C552.077 69.4395 551.085 68.8851 549.918 68.4183C548.751 67.8932 547.496 67.368 546.154 66.8428C543.354 65.7925 540.669 64.7422 538.102 63.6919C535.593 62.6415 533.405 61.387 531.537 59.9282C529.67 58.4111 528.182 56.6022 527.074 54.5016C525.965 52.4009 525.41 49.8043 525.41 46.7117C525.41 43.9108 525.994 41.4309 527.161 39.2719C528.386 37.1129 529.991 35.304 531.975 33.8452C533.959 32.3864 536.235 31.3069 538.802 30.6067C541.428 29.8482 544.141 29.4689 546.942 29.4689C550.56 29.4689 553.74 29.994 556.483 31.0444C559.225 32.0947 561.501 33.5243 563.31 35.3332C565.118 37.1421 566.461 39.2135 567.336 41.5476C568.27 43.8816 568.736 46.3616 568.736 48.9874H554.557C554.557 46.2448 553.886 44.0859 552.544 42.5104C551.26 40.9349 549.393 40.1472 546.942 40.1472C544.9 40.1472 543.149 40.6723 541.691 41.7226C540.232 42.773 539.502 44.3484 539.502 46.4491C539.502 48.4914 540.29 50.1252 541.866 51.3506C543.499 52.5176 545.629 53.5679 548.255 54.5016C550.764 55.3768 553.302 56.3396 555.87 57.3899C558.437 58.3819 560.742 59.6365 562.784 61.1536C564.827 62.6124 566.49 64.4213 567.773 66.5802C569.116 68.6809 569.787 71.2484 569.787 74.2826C569.787 77.4336 569.203 80.2344 568.036 82.6852C566.927 85.1359 565.352 87.2074 563.31 88.8996C561.267 90.5334 558.846 91.7588 556.045 92.5757C553.244 93.451 550.151 93.8886 546.767 93.8886C543.499 93.8886 540.436 93.3926 537.577 92.4007C534.776 91.467 532.325 90.0666 530.225 88.1994C528.182 86.3321 526.578 84.0564 525.41 81.3723C524.243 78.6298 523.66 75.508 523.66 72.0069H537.839Z" fill="#1E1F20"/>
<path d="M583.558 43.2981H569.729V31.0444H611.654V43.2981H597.737V92.3131H583.558V43.2981Z" fill="#1E1F20"/>
</svg>
